<?xml version="1.0" encoding="utf-8"?>
<!-- Generator: Adobe Illustrator 22.0.1, SVG Export Plug-In . SVG Version: 6.00 Build 0)  -->
<svg version="1.1" id="Calque_1" xmlns="http://www.w3.org/2000/svg" xmlns:xlink="http://www.w3.org/1999/xlink" x="0px" y="0px"
	 viewBox="0 0 257.7 379.5" style="enable-background:new 0 0 257.7 379.5;" xml:space="preserve">
<style type="text/css">
	.st0{fill:#444444;}
	.st1{fill:#A51B1D;}
	.st2{fill:none;stroke:#444444;stroke-width:0.2;stroke-miterlimit:10;}
	.st3{clip-path:url(#SVGID_2_);fill:#A5191D;}
	.st4{clip-path:url(#SVGID_2_);fill:#FFFFFF;}
	.st5{clip-path:url(#SVGID_2_);fill:#A51B1D;}
	.st6{fill:#FFFFFF;}
</style>
<g>
	<path class="st0" d="M3.2,315c-0.1-3.7,0.1-20.1,0.1-24.6c0-2.7-0.1-5.4,0.1-8c0.1-3.3,0.3-3.1,3-3.1c1.9,0,9.7,0,11.7-0.1
		c2-0.1,2.4-0.1,4.4-0.2c1.2,0,1.5,0.2,1.6,1.2c0.2,1.9,0,3.9,0.1,5.7c0.1,1.2-0.3,1.2-1.6,1.3l-9.2,0.1c-1,0.1-1.2,0.3-1.3,1.3
		c-0.3,2.5-0.5,5.4-0.3,7.9c0.1,0.8,0.2,1,1.1,1c2.7-0.2,4.1,0.2,6.9,0c0.7-0.1,1.4-0.1,2.2-0.1c1.1,0,1.5,0.4,1.6,1.5l0.2,2
		c0,1.4-0.1,1.4-0.1,2.8c0,1.4-0.9,2.3-2.2,2.1h-8.2c-1.3,0-1.4,0.5-1.4,1.8c0,2.5-0.1,5.7-0.1,8.2c0,3.1-0.5,2.7,2.5,2.6
		c1.8,0,6.1,0.1,7.1,0.1c1.3-0.1,2.8,0.7,2.8,2.8c0,1.5-0.1,2,0.1,3.3c0,2-0.5,2.7-1.8,2.9c-1.4,0.3-2.1,0.1-3.5,0.2
		c-3.5,0.1-7.1-0.1-10.6,0c-1.4,0-2.7-0.1-4.1-0.4c-0.7-0.1-0.8-0.3-0.8-1c-0.1-2.1-0.3-4.2-0.3-6.3C3.1,318.3,3.1,316.6,3.2,315
		L3.2,315z"/>
	<path class="st0" d="M35.1,290.1c0-2.8,0.1-5.7,0.1-8.5c0-1.6,0.5-2,2.1-2.2c1.6-0.1,3.3,0.1,4.9,0h1.2c1,0.1,0.9,1,0.8,1.8
		c-0.1,1.5-0.1,3-0.1,4.5c-0.2,8-0.8,16.1-0.4,24.1c0.2,3.7,0,9.9,5.2,10c2.1,0,3.9-1.4,4.6-3.3c2-5.2,1.3-11.2,1.4-16.6
		c0.1-6.3-0.1-12.7-0.1-18.9c0-0.8,0.6-1.4,1.3-1.4c1.8-0.1,3.5-0.2,5.3-0.1c1.4,0.1,1.9,0.8,1.9,2.3c0,8.6-0.2,16.6-0.3,25.2
		c-0.1,5.9,0.8,13.2-3.5,17.8c-2.5,2.6-5.8,3.5-9.3,3.8c-5.2,0.3-10.5-1.8-12.9-6.5c-1.9-3.7-1.8-8.2-1.9-12.2
		C35.1,303.4,35.1,296.7,35.1,290.1z"/>
	<path class="st0" d="M82.2,323.5c0,2.5,0.5,4.9-0.9,4.9c-1.9,0-3,0.1-4.8,0.1c-0.5,0-1-0.1-1.4-0.1c-0.8,0-0.9-0.2-0.9-1
		c0-2.9,0.1-22.9,0.1-30.4c-0.1-5-0.2-10-0.1-15v-0.8c0.1-1.1,0.7-1.7,1.8-1.7c2.2,0,3.5,0,5.2,0.1c2,0.1,4-0.1,6,0
		c3.3,0.2,6.1,1.7,8.3,4.2c2.8,3.5,3.8,8.2,3.1,12.5c-0.6,4.4-3.4,7.3-6.5,10.1c-0.1,0.2-1.1,0.7-1,0.9c0.1,0.6,4.1,8.2,4.6,9.5
		c0.8,1.7,4.6,8.6,5.1,10.6c0.2,0.7,0,1.2-0.8,1.2l-7.2-0.1c-0.4,0-0.8,0.1-1.1-0.3c-0.2-0.2-0.9-2.3-1.2-3
		c-2.4-5-4.6-10.1-7.3-15.2c-0.1-0.2-0.2-0.3-0.5-0.3c-0.3,0-0.4,0.4-0.5,0.6C82.2,311.1,82.2,321.8,82.2,323.5z M82.2,298
		c0,0,0.1,2,0.1,3.1c0.1,1.6,1.9,1.2,2.9,1c1.6-0.5,3.1-1.3,3.9-2.7c1.8-3.1,2-8.6-1.2-10.8c-1.1-0.8-3.7-1.7-4.9-0.8
		c-0.9,0.7-0.6,2.7-0.7,3.7L82.2,298z"/>
	<path class="st0" d="M144.6,304.2c0,3.6-0.7,7.1-1.6,10.5c-1.2,4.1-3.1,7.8-6.7,10.3c-2.6,1.9-5.4,3.1-8.6,3.5
		c-0.5,0-0.8,0.1-1.3,0.1c-0.4,0-0.8-0.1-1.2-0.1c-3.2-0.3-5.9-1.6-8.6-3.5c-3.5-2.4-5.5-6.1-6.6-10.3c-1-3.5-1.6-6.9-1.6-10.5
		c0-4.3,0.3-8.7,1.7-12.7c2.4-7,9.1-12,16.3-12.1c7.3,0.1,13.9,5.1,16.4,12.1C144.3,295.5,144.6,299.9,144.6,304.2z M136.2,296.9
		c-0.8-3.6-2.4-7.1-5.4-9.3c-0.5-0.4-1.1-0.7-1.7-0.9c-0.8-0.4-1.8-0.5-2.6-0.5s-1.7,0.1-2.5,0.5c-0.7,0.2-1.2,0.5-1.7,0.9
		c-3.1,2.2-4.6,5.7-5.4,9.3c-0.8,4-1,8-0.4,12c0.7,3.6,2,8.4,5.4,10.3c1.4,0.8,3,1.3,4.6,1.4c1.6-0.1,3.3-0.6,4.7-1.4
		c3.4-1.8,4.7-6.7,5.4-10.3C137.3,304.9,137,300.9,136.2,296.9z"/>
	<path class="st0" d="M155.6,288c-0.1-2-0.3-7.8,0.3-8.2c0.5-0.3,1.1-0.3,1.6-0.3c2.3,0,4.7-0.1,7.1-0.1c13.6,0,14.8,11.1,14.8,17.1
		c0,6.7-3,14.5-13.9,14.5c-0.5,0-2.4-0.2-2.4,0.7c0,0.8,0.3,16.3-0.2,16.5c-0.4,0.2-1.2,0.2-1.6,0.2c-2.2,0.1-2.2,0-4.4,0
		c-1,0-1.1-0.2-1.1-1.2C155.6,324.5,155.6,291.8,155.6,288z M163.1,301.4c-0.1,0.7-0.1,1.4-0.1,2.2c0,0.5,0.5,1,0.9,1
		c2.2,0,3.9-0.8,5.2-2.2c1.8-2,2.2-5.8,1.9-8.4c-0.3-3.5-2.5-6.9-6.3-7.1c-0.7-0.1-1.5-0.1-1.7,0.7c-0.1,0.5,0,0.9,0,1.3
		C163,291.4,163.1,300,163.1,301.4z"/>
	<path class="st0" d="M190.2,315c-0.1-3.7,0.1-20.1,0.1-24.6c0-2.7-0.1-5.4,0.1-8c0.1-3.3,0.3-3.1,3-3.1c1.9,0,9.7,0,11.7-0.1
		c2-0.1,2.4-0.1,4.4-0.2c1.2,0,1.5,0.2,1.6,1.2c0.2,1.9,0,3.9,0.1,5.7c0.1,1.2-0.3,1.2-1.6,1.3l-9.2,0.1c-1,0.1-1.2,0.3-1.3,1.3
		c-0.3,2.5-0.5,5.4-0.3,7.9c0.1,0.8,0.2,1,1.1,1c2.7-0.2,4.1,0.2,6.9,0c0.7-0.1,1.4-0.1,2.2-0.1c1.1,0,1.5,0.4,1.6,1.5l0.2,2
		c0,1.4-0.1,1.4-0.1,2.8c0,1.4-0.9,2.3-2.2,2.1h-8.2c-1.3,0-1.4,0.5-1.4,1.8c0,2.5-0.1,5.7-0.1,8.2c0,3.1-0.5,2.7,2.5,2.6
		c1.8,0,6.1,0.1,7.1,0.1c1.3-0.1,2.8,0.7,2.8,2.8c0,1.5-0.1,2,0.1,3.3c0,2-0.5,2.7-1.8,2.9c-1.4,0.3-2.1,0.1-3.5,0.2
		c-3.5,0.1-7.1-0.1-10.6,0c-1.4,0-2.7-0.1-4.1-0.4c-0.7-0.1-0.8-0.3-0.8-1c-0.1-2.1-0.3-4.2-0.3-6.3
		C190.1,318.3,190.1,316.6,190.2,315L190.2,315z"/>
	<path class="st0" d="M230.4,321.3c-0.1-5.9,0.2-27.8,0.2-32.5c0-0.2-0.1-0.4-0.1-0.6c-0.1-0.7-0.6-0.9-1.2-0.9
		c-1-0.1-4.8-0.1-5.7-0.1c-1.6,0-1.5-1.8-1.5-3.7c0-2.9-0.1-4.2,1.6-4.2c2.2,0,3.9,0.1,6.1,0.1c4.4-0.1,15-0.1,16.1-0.1
		c1.6,0,1,2.5,1,3.9c0,1.6,0.3,4-1,4h-5.7c-1.3,0-1.6,0.3-1.6,1.3l-0.2,36.6c0.1,1.1,0.3,3.2-0.9,3.2h-5.9c-0.9,0-1-0.1-1-1
		C230.4,325.3,230.4,323.3,230.4,321.3z"/>
	<path class="st1" d="M26.3,370.5c-1.5,3.3-3.7,6.5-7.2,7.8c-3.8,1.4-8,1.8-12,1.8c-4.5,0-3.9-0.7-3.9-2.4c0-1.5,0.1-3,0.1-4.6
		c0-3.7,0.1-7.4,0-11.1c0-1.5,0.2-3.3,0.1-4.8c-0.1-1.6,0-11.6-0.1-14.9c0-0.6,0.1-1.3,0.2-1.9c0.1-0.6,0.4-0.9,1.1-1
		c2.4-0.2,4.8-0.1,7.1-0.1c2.3-0.1,4.6,0.1,6.7,1c4.6,2,7.7,6.4,8.9,11.2c1,3.7,1.1,7.6,0.8,11.5c-0.2,1.8-0.3,3.6-0.9,5.4
		C26.9,369,26.6,369.7,26.3,370.5z M10.3,364.8c0,0.8,0,1.5,0.1,2.3c0,1.6-0.1,3.3-0.1,4.9c0,1.6,0.4,1.4,2.8,1.4
		c3.6,0,7.7-4.9,7.7-11.9c0-1.5-0.1-3-0.1-4.4c-0.1-2.6-0.7-5.1-2-7.3c-0.7-1.2-1.5-2.4-2.9-2.9c-1.4-0.5-2.5-0.9-4.1-0.9
		c-1.2,0-1.4,0.1-1.4,1.2v0.7c0.2,3.5,0.1,6.2,0.1,10.4V364.8z"/>
	<path class="st1" d="M44.7,366.4c0,2.6,0.2,12.7,0.1,13.1c-0.3,0.7-0.8,0.9-1.5,0.9c-1.8,0.1-3.5,0.1-5.3,0.2
		c-0.4,0-0.6-0.3-0.7-0.5c-0.1-0.8-0.1-1.5-0.1-2.3c0.1-2.2-0.1-12.2-0.2-14.4c-0.1-2.2,0.1-17.4,0.1-22.8c0-1,0.4-1.3,1.5-1.3
		c1.6,0,2.3,0,3.9,0.1c1.1,0.1,1.9-0.1,1.9,2c0,1.9,0.1,4,0.1,5.9C44.6,353.5,44.5,360.1,44.7,366.4z"/>
	<path class="st1" d="M53.7,369.3c-0.2-3.1,0.1-16.9,0.1-20.7c0-2.3,0-4.5,0.1-6.7c0.1-2.8,0.3-2.6,2.5-2.6c1.6,0,8.2,0,9.9-0.1
		c1.6-0.1,2-0.1,3.7-0.2c1,0,1.2,0.2,1.3,1c0.2,1.6,0,3.2,0.1,4.8c0.1,1-0.2,1-1.3,1.1l-7.7,0.1c-0.8,0.1-1,0.2-1.1,1.1
		c-0.2,2.1-0.4,4.5-0.2,6.6c0.1,0.7,0.2,0.8,0.9,0.8c2.4-0.2,4.6,0.2,7,0c0.5-0.1,0-0.1,0.6-0.1c0.9,0,1.3,0.3,1.4,1.3
		c0.1,0.5,0.2,1.1,0.2,1.6c0.1,1.2-0.1,1.2-0.1,2.4c0,1.2,0.4,1.9-0.7,1.8h-8c-1,0-1.2,0.4-1.2,1.5c0,2.1,0,4.8-0.1,6.9
		c0,2.6,0.1,2.8,0.1,4.6c0,1.3-0.1,1.7,0.1,2.7c0,2,0,2.5-3,2.6c-1.2,0-2.3-0.1-3.4-0.3c-0.6-0.1-0.7-0.3-0.8-0.9
		c-0.1-1.8-0.2-3.5-0.2-5.3C53.6,372.1,53.7,370.7,53.7,369.3L53.7,369.3z"/>
	<path class="st1" d="M80.3,369.3c-0.2-3.1,0.1-16.9,0.1-20.7c0-2.3,0-4.5,0.1-6.7c0.1-2.8,0.3-2.6,2.5-2.6c1.6,0,8.2,0,9.9-0.1
		c1.6-0.1,2-0.1,3.7-0.2c1,0,1.2,0.2,1.3,1c0.2,1.6,0,3.2,0.1,4.8c0.1,1-0.2,1-1.3,1.1l-7.7,0.1c-0.8,0.1-1,0.2-1.1,1.1
		c-0.2,2.1-0.4,4.5-0.2,6.6c0.1,0.7,0.2,0.8,0.9,0.8c2.4-0.2,4.6,0.2,7,0c0.5-0.1,0-0.1,0.6-0.1c0.9,0,1.3,0.3,1.4,1.3
		c0.1,0.5,0.2,1.1,0.2,1.6c0.1,1.2-0.1,1.2-0.1,2.4c0,1.2,0.4,1.9-0.7,1.8h-8c-1,0-1.2,0.4-1.2,1.5c0,2.1,0,4.8-0.1,6.9
		c0,2.6,0.1,2.8,0.1,4.6c0,1.3-0.1,1.7,0.1,2.7c0,2,0,2.5-3,2.6c-1.2,0-2.3-0.1-3.4-0.3c-0.6-0.1-0.7-0.3-0.8-0.9
		c-0.1-1.8-0.2-3.5-0.2-5.3C80.2,372.1,80.3,370.7,80.3,369.3L80.3,369.3z"/>
	<path class="st1" d="M106.8,348.4c0-2.4,0.1-4.8,0.1-7.1c0-1.3,0.4-1.7,1.8-1.8c1.4-0.1,2.7,0.1,4.1,0h1c0.9,0.1,0.8,0.9,0.7,1.5
		c-0.1,1.3-0.1,2.5-0.1,3.8c-0.2,6.7-0.7,13.6-0.3,20.3c0.2,3.1,0,8.3,4.4,8.4c1.8,0,3.2-1.2,3.9-2.8c1.7-4.3,1.1-9.4,1.2-13.9
		c0.1-5.3-0.1-10.7-0.1-15.9c0-0.7,0.5-1.2,1.1-1.2c1.5-0.1,3-0.2,4.4-0.1c1.2,0.1,1.6,0.7,1.6,1.9c0,7.2-0.2,13.9-0.3,21.1
		c-0.1,5,0.7,11.1-3,15c-2.1,2.2-4.9,3-7.9,3.2c-4.3,0.3-8.8-1.5-10.9-5.4c-1.6-3.1-1.5-6.9-1.6-10.2
		C106.9,359.5,106.8,353.9,106.8,348.4z"/>
	<path class="st1" d="M150.1,339.1c1.5-0.1,2.9,0.2,4.3,0.6c1.2,0.4,2.4,0.7,2.1,2.1c-0.3,1.3-0.9,2.4-1.3,3.8
		c-0.2,0.6-0.3,1.2-1,1.2c-0.4,0-0.8-0.2-1.1-0.4c-0.5-0.3-1-0.6-1.6-0.8c-2-0.6-4.7,0-5.2,2.4c-0.5,2.2,0.1,4.6,1.8,6.1
		c2.7,2.5,5.6,4.4,7.9,7.3c2.1,2.6,3.6,5.6,3.3,9.1c0,0.4-0.1,0.8-0.1,1.3c-0.2,1.2-0.6,2.4-1.2,3.5c-2.8,5.3-9.3,6.3-14.7,5.1
		c-1.2-0.3-4.4-0.8-4.4-2.5c0.1-1.5,0.5-2.7,0.9-4.1c0.1-0.3,0.2-0.7,0.4-1c0.4-0.7,1-0.5,1.6-0.1c0.9,0.7,1.9,1.5,3,1.9
		c2.1,0.7,5.4,0.4,6.8-1.8c1.2-2,0.5-5.6-1-7.2c-1.1-1.1-2.4-1.9-3.5-3c-1.2-1-2.3-2.2-3.4-3.3c-1.2-1.3-2.6-2.7-3.5-4.3
		c-0.8-1.5-0.9-3.2-0.8-4.8c0.2-2.1,0.7-4.3,1.9-6.1c1.4-2,3.4-3.5,5.7-4.3C148,339.3,149.1,339.2,150.1,339.1z"/>
	<path class="st1" d="M175.7,366.4c0,2.6,0.2,12.7,0.1,13.1c-0.3,0.7-0.8,0.9-1.5,0.9c-1.8,0.1-3.5,0.1-5.3,0.2
		c-0.4,0-0.6-0.3-0.7-0.5c-0.1-0.8-0.1-1.5-0.1-2.3c0.1-2.2-0.1-12.2-0.2-14.4c-0.1-2.2,0.1-17.4,0.1-22.8c0-1,0.4-1.3,1.5-1.3
		c1.6,0,2.3,0,3.9,0.1c1.1,0.1,1.9-0.1,1.9,2c0,1.9,0.1,4,0.1,5.9C175.6,353.5,175.5,360.1,175.7,366.4z"/>
	<path class="st1" d="M214.5,360.2c0,3-0.5,5.9-1.3,8.8c-1,3.5-2.6,6.6-5.6,8.6c-2.2,1.6-4.5,2.6-7.2,2.9c-0.4,0-0.7,0.1-1.1,0.1
		c-0.3,0-0.7-0.1-1-0.1c-2.7-0.3-5-1.3-7.2-2.9c-2.9-2-4.6-5.2-5.5-8.6c-0.8-2.9-1.3-5.8-1.3-8.8c0-3.6,0.3-7.3,1.4-10.7
		c2-5.9,7.6-10,13.7-10.2c6.1,0.1,11.7,4.3,13.8,10.2C214.2,352.9,214.5,356.6,214.5,360.2z M207.4,354.1c-0.7-3-2-6-4.5-7.8
		c-0.4-0.3-0.9-0.6-1.4-0.8c-0.7-0.3-1.5-0.4-2.2-0.4s-1.4,0.1-2.1,0.4c-0.5,0.2-1,0.4-1.4,0.8c-2.6,1.8-3.9,4.8-4.5,7.8
		c-0.7,3.3-0.9,6.8-0.3,10.1c0.5,3,1.6,7.1,4.5,8.6c1.2,0.7,2.5,1.1,3.9,1.2c1.4-0.1,2.7-0.5,4-1.2c2.9-1.5,4-5.6,4.5-8.6
		C208.3,360.9,208.1,357.5,207.4,354.1z"/>
	<path class="st1" d="M246.9,378.9c0,1.6-0.6,1.6-1.7,1.6c-1.6,0-4,0.3-4.4-0.3c-0.4-0.4-8.6-20-9.7-22.5c-0.1-0.2-0.4-0.8-0.6-0.7
		c-0.3,0.1-0.2,0.5-0.2,0.7c-0.1,1.9,0.3,18.5,0.3,21.1c0,1.3-0.1,1.5-1.2,1.5h-2.7c-0.7,0-1.6-0.1-2.3,0.1c-0.5,0-0.8-0.2-0.9-0.7
		v-4.3c0.1-4.6,0-32,0-34c0-1.8,0.5-2.1,2.3-2.1c1.2-0.1,2.4-0.1,3.6-0.1c0.4,0,0.6,0.1,0.8,0.5c1.5,3.5,7.8,19.3,8.8,21.2
		c0.2,0.4,0.8,1.9,1.1,2.1h0.1c0.2-0.2,0.2-1.3,0.2-1.6c0-0.8-0.4-20.1-0.4-20.5c0-0.5-0.2-1,0.1-1.4c0.2-0.2,0.9-0.3,1.2-0.3
		c1.5-0.1,3.3,0.1,4.9,0c0.8,0,0.7,0.5,0.9,1.3C247,341.4,246.9,378,246.9,378.9z"/>
</g>
<circle class="st2" cx="252.8" cy="340.6" r="3.9"/>
<g>
	<path class="st0" d="M251.1,342.9v-4.6h2.1c0.4,0,0.7,0,0.9,0.1c0.2,0.1,0.4,0.2,0.5,0.4c0.1,0.2,0.2,0.4,0.2,0.7
		c0,0.3-0.1,0.6-0.3,0.8c-0.2,0.2-0.5,0.4-1,0.4c0.2,0.1,0.3,0.2,0.4,0.2c0.2,0.2,0.3,0.4,0.5,0.6l0.8,1.3h-0.8l-0.6-1
		c-0.2-0.3-0.3-0.5-0.4-0.6c-0.1-0.1-0.2-0.3-0.3-0.3c-0.1-0.1-0.2-0.1-0.3-0.1c-0.1,0-0.2,0-0.3,0h-0.7v2.1H251.1z M251.7,340.3
		h1.3c0.3,0,0.5,0,0.7-0.1c0.2-0.1,0.3-0.2,0.4-0.3c0.1-0.1,0.1-0.3,0.1-0.4c0-0.2-0.1-0.4-0.2-0.5c-0.2-0.1-0.4-0.2-0.8-0.2h-1.5
		V340.3z"/>
</g>
<g>
	<defs>
		<path id="SVGID_1_" d="M247.4,12.4l-0.1,255L2.6,267.3l0.1-255c0-6.6,5.4-12,12-12l220.7,0.1C242,0.4,247.4,5.8,247.4,12.4z"/>
	</defs>
	<clipPath id="SVGID_2_">
		<use xlink:href="#SVGID_1_"  style="overflow:visible;"/>
	</clipPath>
	<path class="st3" d="M247.7,11.6l-0.1,258l-245-0.1l0.1-258c0-6.6,5.4-12,12-12l221,0.1C242.3-0.4,247.7,5,247.7,11.6z"/>
	<path id="Chien" class="st4" d="M1.5,172c0,0,29.2-19.2,47.5-28c0,0,1.6-15.1,3.3-23.9c2.8-13.9,14.9-35.9,18.9-43.9
		c0.7-1.3,1.1-2.8,1.4-4.3c1.6-9.6,9.6-48.4,32.9-55.4c0,0,3.3,4.4,2.5,19.5c-0.6,10.1,0.8,16.7,1.7,19.8c0.4,1.5,1.3,2.9,2.5,3.9
		c3.5,3.1,12.4,9.6,26.9,11.9c1.1,0.2,3.8,1,4.8,1.5c4.7,2.3,18.2,10.4,38.1,33.7c0,0,12.5,17.7,46.5,25.7c0,0,8.3,0.9,11.6,7.1
		c2.5,4.6-1.5,9.7-3.7,12c-1.1,1.1-2.7,1.7-4.2,1.4c-1.7-0.4-4-1.6-6.2-5c0,0,0.2,5.3,7.5,7.5c0,0-2.3,4-0.6,10.8
		c1.6,6.3-2.3,37.2-32,27.5s-49.5-1.6-49.5-1.6s1.5,3.9-4.1,29.3s-31.6,42.1-39.3,41.8c-7.7-0.2-103.9,2.1-103.9,2.1L1.5,172z"/>
	<path id="Chat" class="st5" d="M1,200.6c0,0,24.5-31.5,78.9-37c0,0,5.2-8.2,5.2-14.3c0-6.1,3.2-26.6,23.9-35.5
		c0,0,7.8-23.9,38.2-28c0,0-8.4,25.3-5.8,30c0,0,23.1,2.1,31.5,38.3c0,0,8.1,5.1,7.6,10c-0.5,5.7-4.7,6.2-4.7,6.2s-7.8,25.3-37,15.1
		c0,0,1.5,2.8,13.3,6.5c0,0,9.8,42.5-30.8,74.9L1,266.8V200.6z"/>
	<path id="Oiseau" class="st4" d="M175.6,9.4c3.1,0.2,16.4,1.2,27.6,5.1c0,0,2,1,2.5,6.1s6.9,9.6,6.9,9.6s0.7,0.4,2.1,0.2
		c0.4,0,0.8-0.2,1.2-0.5c0.8-0.7,2.8-1.8,5,0.3l2.3,0.6l-1.9,0.6c0,0-1.7,1.7-3.1,2c-1.5,0.3,0.7,2.4,1.7,2.8
		c0.8,0.3,4.1,2,10.5,2.4s5.6,24.8,5.6,24.8s0.1,1.1-1,0.2c-0.5-0.4-0.9-1-1.2-1.6c-1.4-3-6.9-14.6-10-17c-0.3-0.2-1.5-1.3-1.7-1.5
		c-1.4-1.3-5.5-4.6-10.6-4.6c-6.1,0-14.1,6.1-14.1,6.1s-1.2-1.7-1.9-1.7c-0.7,0-1.7,0.4-2.1,0.1c-0.5-0.3-1.6-2.3-1.5-3
		c0,0,6.1-2.1,9.4-3.7c0,0,0.6-5.3-2.2-9.1s-4.8-7.8-9.4-12.1c0,0-6.3,0.3-14.1-4.1c-7-3.9-3.5-3-1.2-2.4
		C174.6,9.3,175.1,9.4,175.6,9.4z"/>
</g>
<path id="Lapin_1_" class="st6" d="M1.1,228.8c0,0,45.4-19.9,75.7-3.4c0,0,3.3-1.4,11-0.9c0,0-1.4-2.5,4-11.7c0,0-18.4-26.1-11.7-43
	c0,0,11.7-5.1,25.9,26.1c0,0,9.2-23.2,20.9-28.2c0,0,3.3,0.4-4.6,16.4s-1.3,21.1-1.3,21.1s20.1,6.7,23.8,29.5c0,0,3.4,8.8-11.3,12.2
	c-21,4.9-7.1,23.5-7.1,23.5L1.5,270.9"/>
</svg>
